<mxfile host="app.diagrams.net" modified="2021-12-03T01:26:34.218Z" agent="5.0 (Windows NT 10.0; Win64; x64) AppleWebKit/537.36 (KHTML, like Gecko) Chrome/96.0.4664.45 Safari/537.36" etag="YC7R7bAcJmUwp5ZYxS4c" version="15.7.0" type="github">
  <diagram id="ELllASvtICMO10XcmPvx" name="Page-1">
    <mxGraphModel dx="1422" dy="796" grid="1" gridSize="10" guides="1" tooltips="1" connect="1" arrows="1" fold="1" page="1" pageScale="1" pageWidth="1169" pageHeight="827" math="0" shadow="0">
      <root>
        <mxCell id="0" />
        <mxCell id="1" parent="0" />
        <mxCell id="uqEYBqhGOKx9AK8mu3uP-1" value="Pool" style="swimlane;childLayout=stackLayout;resizeParent=1;resizeParentMax=0;horizontal=1;startSize=20;horizontalStack=0;" vertex="1" parent="1">
          <mxGeometry x="90" y="20" width="1010" height="740" as="geometry" />
        </mxCell>
        <mxCell id="uqEYBqhGOKx9AK8mu3uP-2" value="Lane 1" style="swimlane;startSize=20;horizontal=0;" vertex="1" parent="uqEYBqhGOKx9AK8mu3uP-1">
          <mxGeometry y="20" width="1010" height="230" as="geometry" />
        </mxCell>
        <mxCell id="uqEYBqhGOKx9AK8mu3uP-3" value="Lane 2" style="swimlane;startSize=20;horizontal=0;" vertex="1" parent="uqEYBqhGOKx9AK8mu3uP-1">
          <mxGeometry y="250" width="1010" height="220" as="geometry" />
        </mxCell>
        <mxCell id="uqEYBqhGOKx9AK8mu3uP-4" value="Lane 3" style="swimlane;startSize=20;horizontal=0;" vertex="1" parent="uqEYBqhGOKx9AK8mu3uP-1">
          <mxGeometry y="470" width="1010" height="270" as="geometry" />
        </mxCell>
      </root>
    </mxGraphModel>
  </diagram>
</mxfile>
